<svg width="140" height="32" viewBox="0 0 140 32" fill="none" xmlns="http://www.w3.org/2000/svg">
<path d="M19.2002 3.2002L22.4004 6.40039H25.5996V9.59961L28.7998 12.7998H32V19.2002H28.7998L25.5996 22.4004V25.5996H22.4004L19.2002 28.7998V32H12.7998V28.7998L9.59961 25.5996H6.40039V22.209L3.3916 19.2002H0V12.7998H3.2002L6.40039 9.59961V6.40039H9.59961L12.7998 3.2002V0H19.2002V3.2002Z" fill="white"/>
<path d="M61.2705 27.5H52.6309V26.0674H55.5137V5.90527H49.748V7.34668H48.3066V8.78809H46.874V10.2207H45.4414V7.34668H46.874V3.02246H48.3066V4.46387H67.0273V3.02246H68.4688V7.34668H67.0273V10.2207H65.5859V5.90527H58.3877V26.0674H61.2705V27.5ZM76.3613 27.5H69.1631V26.0674H67.7217V24.626H66.2803V21.7432H64.8477V17.4277H66.2803V14.5449H67.7217V15.9863H76.3613V14.5449H74.9199V13.1035H69.1631V11.6621H76.3613V13.1035H77.8027V14.5449H79.2441V17.4277H67.7217V21.7432H69.1631V24.626H70.6045V26.0674H76.3613V27.5ZM69.1631 14.5449H67.7217V13.1035H69.1631V14.5449ZM79.2441 24.626H77.8027V23.1846H79.2441V24.626ZM77.8027 26.0674H76.3613V24.626H77.8027V26.0674ZM88.6045 27.5H84.2803V26.0674H82.8389V13.1035H81.4062V11.6621H82.8389V10.2207H84.2803V8.78809H85.7217V11.6621H90.0459V13.1035H85.7217V26.0674H88.6045V27.5ZM90.0459 26.0674H88.6045V24.626H90.0459V26.0674ZM97.9561 27.5H92.1992V26.0674H93.6318V4.46387H92.1992V3.02246H93.6318V1.58105H95.0732V0.148438H96.5146V13.1035H97.9561V14.5449H96.5146V26.0674H97.9561V27.5ZM108.758 27.5H102.992V26.0674H104.434V14.5449H102.992V13.1035H97.9561V11.6621H104.434V13.1035H105.875V14.5449H107.316V26.0674H108.758V27.5ZM116.694 27.5H110.938V26.0674H112.37V14.5449H110.938V13.1035H112.37V11.6621H113.812V10.2207H115.253V13.1035H116.694V14.5449H115.253V26.0674H116.694V27.5ZM122.451 14.5449H119.577V13.1035H116.694V11.6621H122.451V14.5449ZM139.01 27.5H136.127V26.0674H133.253V24.626H134.686V18.8604H133.253V17.4277H134.686V14.5449H133.253V13.1035H128.929V14.5449H127.487V15.9863H124.613V14.5449H126.046V13.1035H127.487V11.6621H134.686V13.1035H136.127V14.5449H137.568V26.0674H139.01V27.5ZM133.253 20.3018H128.929V18.8604H133.253V20.3018ZM133.253 27.5H127.487V26.0674H126.046V24.626H124.613V21.7432H126.046V20.3018H128.929V21.7432H127.487V24.626H128.929V26.0674H133.253V27.5Z" fill="white"/>
</svg>
